<svg width="55" height="55" viewBox="0 0 55 55" fill="none" xmlns="http://www.w3.org/2000/svg">
<path d="M27.5 5.14893C22.0584 5.14915 16.7944 7.08564 12.6499 10.6119C8.50543 14.1382 5.75092 19.0241 4.87924 24.3954C4.00757 29.7668 5.07561 35.2731 7.89225 39.929C10.7089 44.5849 15.0903 48.0867 20.2526 49.8078C21.3985 50.0083 21.8282 49.3208 21.8282 48.7192C21.8282 48.175 21.7995 46.3703 21.7995 44.451C16.0416 45.5109 14.5521 43.0474 14.0937 41.7584C13.5852 40.5047 12.7789 39.3936 11.7448 38.5213C10.9427 38.0916 9.79686 37.0317 11.7161 37.0031C12.4489 37.0827 13.1518 37.3377 13.7652 37.7465C14.3785 38.1554 14.8843 38.7062 15.2396 39.352C15.553 39.9151 15.9745 40.4108 16.4798 40.8107C16.9851 41.2106 17.5644 41.5068 18.1844 41.6824C18.8045 41.8581 19.453 41.9096 20.093 41.8342C20.733 41.7587 21.3518 41.5577 21.914 41.2427C22.0132 40.0776 22.5324 38.9883 23.375 38.1776C18.276 37.6047 12.9479 35.6281 12.9479 26.8625C12.9157 24.585 13.7561 22.3814 15.2969 20.7037C14.5963 18.7242 14.6782 16.5518 15.526 14.6308C15.526 14.6308 17.4452 14.0292 21.8281 16.9797C25.5779 15.9484 29.5366 15.9484 33.2864 16.9797C37.6692 14.0006 39.5885 14.6308 39.5885 14.6308C40.4364 16.5518 40.5184 18.7242 39.8177 20.7037C41.3631 22.3785 42.2042 24.584 42.1666 26.8625C42.1666 35.6567 36.8098 37.6047 31.7109 38.1776C32.2578 38.732 32.679 39.3975 32.9459 40.129C33.2129 40.8605 33.3192 41.6409 33.2578 42.4172C33.2578 45.4824 33.2291 47.9458 33.2291 48.7193C33.2291 49.3209 33.6588 50.037 34.8046 49.8078C39.9578 48.0728 44.3267 44.5628 47.1313 39.9044C49.936 35.2461 50.9939 29.7427 50.1162 24.3766C49.2384 19.0104 46.4823 14.1308 42.3396 10.6088C38.1969 7.08687 32.9374 5.15176 27.5 5.14893Z" fill="black"/>
</svg>
