<svg width="56" height="56" viewBox="0 0 56 56" fill="none" xmlns="http://www.w3.org/2000/svg">
<path d="M28.0001 22.2132C26.8556 22.2132 25.7368 22.5526 24.7852 23.1884C23.8336 23.8242 23.0919 24.728 22.6539 25.7854C22.2159 26.8428 22.1013 28.0063 22.3246 29.1288C22.5479 30.2513 23.099 31.2824 23.9083 32.0916C24.7176 32.9009 25.7487 33.452 26.8712 33.6753C27.9937 33.8986 29.1572 33.784 30.2145 33.346C31.2719 32.908 32.1757 32.1664 32.8115 31.2147C33.4474 30.2631 33.7867 29.1443 33.7867 27.9998C33.7867 27.2399 33.6371 26.4874 33.3463 25.7854C33.0555 25.0833 32.6292 24.4454 32.0919 23.908C31.5545 23.3707 30.9166 22.9445 30.2145 22.6537C29.5125 22.3628 28.76 22.2132 28.0001 22.2132ZM51.1701 16.4965C51.1578 14.6946 50.826 12.9092 50.1901 11.2232C49.7217 9.98944 48.9971 8.86906 48.064 7.93594C47.1309 7.00282 46.0105 6.27818 44.7768 5.80984C43.0908 5.17392 41.3053 4.84211 39.5034 4.82984C36.4934 4.6665 35.6068 4.6665 28.0001 4.6665C20.3934 4.6665 19.5067 4.6665 16.4967 4.82984C14.6949 4.84211 12.9094 5.17392 11.2234 5.80984C9.98969 6.27818 8.8693 7.00282 7.93618 7.93594C7.00306 8.86906 6.27842 9.98944 5.81008 11.2232C5.17416 12.9092 4.84236 14.6946 4.83008 16.4965C4.66675 19.5065 4.66675 20.3932 4.66675 27.9998C4.66675 35.6065 4.66675 36.4932 4.83008 39.5032C4.8552 41.3114 5.18655 43.1023 5.81008 44.7998C6.27635 46.0279 7.00038 47.1418 7.93342 48.0665C8.86253 49.0052 9.98532 49.7299 11.2234 50.1898C12.9094 50.8258 14.6949 51.1576 16.4967 51.1698C19.5067 51.3332 20.3934 51.3332 28.0001 51.3332C35.6068 51.3332 36.4934 51.3332 39.5034 51.1698C41.3053 51.1576 43.0908 50.8258 44.7768 50.1898C46.0148 49.7299 47.1376 49.0052 48.0668 48.0665C48.9998 47.1418 49.7238 46.0279 50.1901 44.7998C50.8254 43.1056 51.1571 41.3126 51.1701 39.5032C51.3334 36.4932 51.3334 35.6065 51.3334 27.9998C51.3334 20.3932 51.3334 19.5065 51.1701 16.4965ZM45.2434 35.1632C45.1685 36.6031 44.8612 38.0214 44.3334 39.3632C43.8804 40.4824 43.207 41.4992 42.3532 42.353C41.4994 43.2068 40.4827 43.8802 39.3634 44.3332C38.0089 44.8316 36.5827 45.1074 35.1401 45.1498C33.2968 45.1498 32.8067 45.1498 28.0001 45.1498C23.1934 45.1498 22.7034 45.1498 20.8601 45.1498C19.4175 45.1074 17.9912 44.8316 16.6367 44.3332C15.4797 43.9032 14.4347 43.2172 13.5801 42.3265C12.7346 41.4894 12.0817 40.4782 11.6667 39.3632C11.1664 38.0101 10.8982 36.5822 10.8734 35.1398C10.8734 33.2965 10.8734 32.8065 10.8734 27.9998C10.8734 23.1932 10.8734 22.7032 10.8734 20.8598C10.8982 19.4174 11.1664 17.9896 11.6667 16.6365C12.0967 15.4794 12.7827 14.4345 13.6734 13.5798C14.5142 12.739 15.5244 12.0867 16.6367 11.6665C17.9912 11.1681 19.4175 10.8923 20.8601 10.8498C22.7034 10.8498 23.1934 10.8498 28.0001 10.8498C32.8067 10.8498 33.2968 10.8498 35.1401 10.8498C36.5827 10.8923 38.0089 11.1681 39.3634 11.6665C40.5205 12.0965 41.5654 12.7825 42.4201 13.6732C43.2655 14.5103 43.9184 15.5215 44.3334 16.6365C44.8318 17.991 45.1076 19.4172 45.1501 20.8598C45.1501 22.7032 45.1501 23.1932 45.1501 27.9998C45.1501 32.8065 45.3134 33.2965 45.2434 35.1398V35.1632ZM41.5101 17.8032C41.2323 17.0495 40.7943 16.365 40.2262 15.797C39.6582 15.229 38.9738 14.791 38.2201 14.5132C37.1852 14.1544 36.0952 13.9807 35.0001 13.9998C33.1801 13.9998 32.6667 13.9998 28.0001 13.9998C23.3334 13.9998 22.8201 13.9998 21.0001 13.9998C19.8994 14.0106 18.8092 14.216 17.7801 14.6065C17.0379 14.8717 16.3607 15.2918 15.7934 15.839C15.2262 16.3861 14.7819 17.0477 14.4901 17.7798C14.1512 18.819 13.9857 19.9069 14.0001 20.9998C14.0001 22.8198 14.0001 23.3332 14.0001 27.9998C14.0001 32.6665 14.0001 33.1798 14.0001 34.9998C14.0232 36.0993 14.2282 37.1873 14.6067 38.2198C14.8846 38.9735 15.3226 39.658 15.8906 40.226C16.4586 40.794 17.143 41.232 17.8967 41.5098C18.8923 41.876 19.9399 42.0808 21.0001 42.1165C22.8201 42.1165 23.3334 42.1165 28.0001 42.1165C32.6667 42.1165 33.1801 42.1165 35.0001 42.1165C36.1008 42.1057 37.1909 41.9004 38.2201 41.5098C38.9738 41.232 39.6582 40.794 40.2262 40.226C40.7943 39.658 41.2323 38.9735 41.5101 38.2198C41.9006 37.1907 42.106 36.1005 42.1167 34.9998C42.1167 33.1798 42.1167 32.6665 42.1167 27.9998C42.1167 23.3332 42.1167 22.8198 42.1167 20.9998C42.1174 19.898 41.9117 18.8059 41.5101 17.7798V17.8032ZM28.0001 36.9132C26.8307 36.9132 25.6727 36.6825 24.5926 36.2342C23.5125 35.786 22.5315 35.1291 21.7056 34.3011C20.8798 33.4731 20.2255 32.4903 19.7801 31.4091C19.3347 30.3278 19.107 29.1693 19.1101 27.9998C19.1101 26.236 19.6334 24.5117 20.6139 23.0454C21.5943 21.5791 22.9878 20.4367 24.6178 19.7628C26.2479 19.0888 28.0413 18.9137 29.7709 19.2595C31.5006 19.6053 33.0887 20.4566 34.3343 21.7055C35.58 22.9543 36.427 24.5447 36.7683 26.2753C37.1096 28.0058 36.9298 29.7987 36.2515 31.427C35.5733 33.0553 34.4273 34.4458 32.9584 35.4224C31.4896 36.399 29.764 36.9178 28.0001 36.9132ZM37.3334 20.8365C36.8176 20.7819 36.3403 20.5384 35.9933 20.1528C35.6464 19.7672 35.4545 19.2669 35.4545 18.7482C35.4545 18.2295 35.6464 17.7292 35.9933 17.3436C36.3403 16.958 36.8176 16.7144 37.3334 16.6598C37.8492 16.7144 38.3266 16.958 38.6735 17.3436C39.0204 17.7292 39.2124 18.2295 39.2124 18.7482C39.2124 19.2669 39.0204 19.7672 38.6735 20.1528C38.3266 20.5384 37.8492 20.7819 37.3334 20.8365Z" fill="black"/>
</svg>
